<svg xmlns="http://www.w3.org/2000/svg" viewBox="0 0 206.88 71.53"><defs><style>.cls-1{fill:#694a30;}.cls-2{fill:#ca9e67;}.cls-3{fill:#fcde29;}.cls-4{fill:#9bc65c;}.cls-5{fill:#ea5636;}.cls-6{fill:#fff;}</style></defs><g id="Capa_2"><g id="Capa_1-2"><path class="cls-1" d="M128.57,0c2,.07,25.63,1.49,25.63,25,0,24.54-25.76,46.52-25.76,46.52s-25.76-22-25.76-46.52S128.44,0,128.44,0Zm17.49,25.58a17.62,17.62,0,1,0-17.62,17.62A17.62,17.62,0,0,0,146.06,25.59Z"/><path class="cls-2" d="M180.9.27a24.81,24.81,0,0,1,18.53,7.67A26.35,26.35,0,0,1,206.88,27a26.33,26.33,0,0,1-7.45,19.07,24.81,24.81,0,0,1-18.53,7.67H158.75V.27Zm0,38.65a9.91,9.91,0,0,0,7.68-3.32,12.31,12.31,0,0,0,3-8.6,12.3,12.3,0,0,0-3-8.59,9.91,9.91,0,0,0-7.68-3.32h-6.11V38.92Z"/><rect class="cls-3" x="169.44" y="0.27" width="5.35" height="53.48"/><rect class="cls-4" x="164.09" y="0.27" width="5.35" height="53.48"/><rect class="cls-5" x="158.75" y="0.27" width="5.35" height="53.48"/><path class="cls-1" d="M71.39.27A26.74,26.74,0,1,1,44.65,27,26.73,26.73,0,0,1,71.39.27ZM83.63,27A12.24,12.24,0,1,0,71.39,39.24,12.23,12.23,0,0,0,83.63,27Z"/><path class="cls-1" d="M39.9,15.09H22l-1.2,7H38.32L35.76,36.86H18.19L15.28,53.74H0L9.23.27H42.46Z"/><path class="cls-1" d="M39.9,15.09A22.24,22.24,0,0,1,53.17.27H36.34Z"/><path class="cls-1" d="M151,63h-1.92l-.7,3.53a.75.75,0,0,0,.1.64.83.83,0,0,0,.6.23,9.43,9.43,0,0,0,1.05,0l-.4,2q-2.29.25-3.09-.42c-.53-.45-.67-1.26-.44-2.42l.7-3.53h-1.48l.42-2.1h1.48l.34-1.72,2.31-.66-.47,2.38h1.92Z"/><path class="cls-1" d="M155,62.37a3.14,3.14,0,0,1,1.25-1.23,3.59,3.59,0,0,1,1.65-.4l-.48,2.44a2.9,2.9,0,0,0-1.87.41,2.47,2.47,0,0,0-1.14,1.74l-.8,4H151.4l1.69-8.47h2.18Z"/><path class="cls-1" d="M165.24,60.91h2.19l-1.68,8.47h-2.19l.2-1a4.07,4.07,0,0,1-3,1.24,3.09,3.09,0,0,1-2.65-1.3,3.83,3.83,0,0,1-.58-3.17A5.56,5.56,0,0,1,159.36,62a4.67,4.67,0,0,1,3.16-1.3A2.68,2.68,0,0,1,165,61.91Zm-5.22,6a1.87,1.87,0,0,0,1.55.67,2.8,2.8,0,0,0,1.82-.67,3,3,0,0,0,1-1.72,2,2,0,0,0-.33-1.72,1.86,1.86,0,0,0-1.55-.68,2.72,2.72,0,0,0-1.81.68,2.89,2.89,0,0,0-1,1.72A2.06,2.06,0,0,0,160,66.87Z"/><path class="cls-1" d="M171.72,69.62a3.53,3.53,0,0,1-2.94-1.29,3.69,3.69,0,0,1-.65-3.18A5.45,5.45,0,0,1,170,62a5.26,5.26,0,0,1,3.46-1.29,3.82,3.82,0,0,1,2.13.59,3,3,0,0,1,1.23,1.6l-2.1,1.1a1.42,1.42,0,0,0-.61-.83,1.87,1.87,0,0,0-1.1-.31,2.64,2.64,0,0,0-1.76.66,2.82,2.82,0,0,0-1,1.67,1.92,1.92,0,0,0,.31,1.65,1.81,1.81,0,0,0,1.5.65,2.67,2.67,0,0,0,1.24-.3,2.45,2.45,0,0,0,.93-.82L176,67.42a5.78,5.78,0,0,1-1.9,1.6A5,5,0,0,1,171.72,69.62Z"/><path class="cls-1" d="M184.56,69.38H182l-2.32-3.85-.77,3.85h-2.18l2.35-11.86h2.19l-1.42,7.13,3.66-3.74h2.61l-4.24,4.18Z"/><path class="cls-1" d="M187.55,66c.08,1.07.77,1.6,2.07,1.6a2.72,2.72,0,0,0,2.07-.85l1.56,1a5.2,5.2,0,0,1-4.06,1.81,3.75,3.75,0,0,1-3.12-1.27,3.71,3.71,0,0,1-.63-3.2,5.44,5.44,0,0,1,1.89-3.2,5.21,5.21,0,0,1,3.47-1.28A3.27,3.27,0,0,1,193.62,62a3.86,3.86,0,0,1,.58,3.19,4.88,4.88,0,0,1-.26.89Zm.3-1.69h4.32a1.64,1.64,0,0,0-.51-1.29,1.87,1.87,0,0,0-1.25-.42,2.66,2.66,0,0,0-1.54.45A2.78,2.78,0,0,0,187.85,64.35Z"/><path class="cls-1" d="M198.47,62.37a3.08,3.08,0,0,1,1.25-1.23,3.53,3.53,0,0,1,1.65-.4l-.49,2.44a2.92,2.92,0,0,0-1.87.41,2.46,2.46,0,0,0-1.13,1.74l-.81,4h-2.18l1.68-8.47h2.19Z"/><path class="cls-1" d="M38.32,22s-.43,8.52,2.7,15.13H17.44Z"/><circle class="cls-6" cx="128.44" cy="25.59" r="19.97"/><circle class="cls-1" cx="128.44" cy="25.59" r="12.24"/></g></g></svg>
